<?xml version="1.0" encoding="UTF-8"?>
<svg version="1.1" xmlns="http://www.w3.org/2000/svg" width="93" height="82">
<path d="M0 0 C1.02480469 -0.01611328 2.04960938 -0.03222656 3.10546875 -0.04882812 C15.17461201 -0.05649594 25.69201988 3.28347468 34.61328125 11.64453125 C45.08844863 22.80547063 46.61342006 32.37697322 46.3984375 47.1484375 C46.0063097 58.01542462 40.83509097 65.9420427 33.0234375 73.2890625 C23.52959545 81.17264159 14.40790212 82.9802176 2.24804688 82.83398438 C0.12774339 82.81252776 -1.98917377 82.83387767 -4.109375 82.859375 C-16.66306045 82.88609376 -25.68275694 79.95799254 -34.875 71.3125 C-43.73999975 61.88686785 -47.22841115 51.44279766 -47.0859375 38.69140625 C-46.38465641 27.45792208 -41.12545935 18.06369918 -33 10.4375 C-22.92124756 1.88263079 -12.98269009 -0.04052026 0 0 Z " fill="#F9FBFB" transform="translate(46.875,-0.3125)"/>
<path d="M0 0 C7.6069466 4.36145256 13.72675601 10.73781591 16.93359375 18.9921875 C19.39992453 29.07197416 17.89010327 38.7130436 12.5625 47.5625 C7.31932196 54.10590162 1.62737784 58.22692663 -6.4375 60.5625 C-15.89939176 61.56125524 -23.51539397 61.01706481 -31.4375 55.5625 C-32.09363281 55.11648437 -32.74976563 54.67046875 -33.42578125 54.2109375 C-39.02749236 49.91669215 -43.21281987 43.57991717 -44.4375 36.5625 C-45.13440738 26.89539906 -45.73416519 18.51160494 -39.4375 10.5625 C-38.674375 9.49 -37.91125 8.4175 -37.125 7.3125 C-27.22947454 -2.81315396 -13.05976032 -5.99818508 0 0 Z " fill="#F4F8FA" transform="translate(57.4375,11.4375)"/>
<path d="M0 0 C7.6069466 4.36145256 13.72675601 10.73781591 16.93359375 18.9921875 C19.39992453 29.07197416 17.89010327 38.7130436 12.5625 47.5625 C7.31932196 54.10590162 1.62737784 58.22692663 -6.4375 60.5625 C-15.89939176 61.56125524 -23.51539397 61.01706481 -31.4375 55.5625 C-32.09363281 55.11648437 -32.74976563 54.67046875 -33.42578125 54.2109375 C-39.02749236 49.91669215 -43.21281987 43.57991717 -44.4375 36.5625 C-45.13440738 26.89539906 -45.73416519 18.51160494 -39.4375 10.5625 C-38.674375 9.49 -37.91125 8.4175 -37.125 7.3125 C-27.22947454 -2.81315396 -13.05976032 -5.99818508 0 0 Z M-17.4375 -1.4375 C-17.1075 -0.4475 -16.7775 0.5425 -16.4375 1.5625 C-16.98277344 1.42070312 -17.52804688 1.27890625 -18.08984375 1.1328125 C-23.16804246 0.1432148 -25.9964165 0.42661542 -30.375 3.3125 C-33.1174773 5.3052701 -34.52543759 6.69440639 -36.4375 9.5625 C-33.03437262 8.50374926 -30.42396769 7.55347846 -27.4375 5.5625 C-29.41271025 7.88627677 -31.13724892 8.94418123 -33.875 10.4375 C-38.98932328 13.27519414 -41.58788068 17.06873709 -43.4375 22.5625 C-44.3628355 30.77216265 -43.66648171 38.33927577 -39.4375 45.5625 C-38.7775 45.8925 -38.1175 46.2225 -37.4375 46.5625 C-37.6540625 45.79164062 -37.870625 45.02078125 -38.09375 44.2265625 C-38.3721875 43.22367188 -38.650625 42.22078125 -38.9375 41.1875 C-39.2159375 40.18976562 -39.494375 39.19203125 -39.78125 38.1640625 C-40.4375 35.5625 -40.4375 35.5625 -40.4375 33.5625 C-39.1175 35.8725 -37.7975 38.1825 -36.4375 40.5625 C-32.71861761 40.05537967 -29.70295761 39.44641785 -26.4375 37.5625 C-27.0975 38.2225 -27.7575 38.8825 -28.4375 39.5625 C-29.71101308 42.10952616 -29.23941925 42.9907945 -28.5 45.6875 C-28.30535156 46.41195312 -28.11070313 47.13640625 -27.91015625 47.8828125 C-27.75417969 48.43710937 -27.59820312 48.99140625 -27.4375 49.5625 C-25.10678121 49.98120553 -25.10678121 49.98120553 -22.4375 49.5625 C-18.94717165 45.97521808 -17.61526792 43.16241131 -17.0625 38.1875 C-17.54314902 33.54122615 -18.96495878 32.57203572 -22.4375 29.5625 C-27.4375 24.37331081 -27.4375 24.37331081 -27.4375 19.5625 C-28.0975 19.5625 -28.7575 19.5625 -29.4375 19.5625 C-29.4375 18.2425 -29.4375 16.9225 -29.4375 15.5625 C-30.4275 15.2325 -31.4175 14.9025 -32.4375 14.5625 C-32.7675 13.9025 -33.0975 13.2425 -33.4375 12.5625 C-32.798125 12.748125 -32.15875 12.93375 -31.5 13.125 C-30.4790625 13.3415625 -30.4790625 13.3415625 -29.4375 13.5625 C-29.1075 13.2325 -28.7775 12.9025 -28.4375 12.5625 C-28.23125 13.738125 -28.025 14.91375 -27.8125 16.125 C-26.62416328 20.92964201 -24.13957252 24.31258901 -20.4375 27.5625 C-15.37587164 29.24970945 -11.70320096 29.07736141 -6.75 27.0625 C-1.82099453 23.97217971 -0.2035245 18.8605735 1.5625 13.5625 C2.8825 13.5625 4.2025 13.5625 5.5625 13.5625 C4.94375 14.078125 4.325 14.59375 3.6875 15.125 C1.06819821 18.12949323 0.52135042 20.72709833 -0.4375 24.5625 C-1.79521899 28.15075734 -2.99869475 28.9994067 -6.4375 30.5625 C-8.45251725 32.18039706 -9.33707316 33.04559715 -9.8359375 35.61328125 C-9.78443633 40.58314418 -9.5287795 44.440794 -6.4375 48.5625 C-3.2848836 49.48201312 -0.70796435 49.5625 2.5625 49.5625 C2.8925 47.2525 3.2225 44.9425 3.5625 42.5625 C2.9025 42.5625 2.2425 42.5625 1.5625 42.5625 C0.5725 40.2525 -0.4175 37.9425 -1.4375 35.5625 C-0.715625 36.201875 0.00625 36.84125 0.75 37.5 C3.59304915 39.58490271 5.06500233 40.47282057 8.5625 40.5625 C10.76237482 39.45609519 10.76237482 39.45609519 12.5625 37.5625 C13.2575739 35.06842748 13.2575739 35.06842748 13.3125 32.375 C13.39757812 31.02341797 13.39757812 31.02341797 13.484375 29.64453125 C13.52304688 28.61392578 13.52304688 28.61392578 13.5625 27.5625 C13.52511719 28.25214844 13.48773438 28.94179688 13.44921875 29.65234375 C13.00171852 36.04896465 11.90600199 41.59320248 9.5625 47.5625 C14.81896626 42.71715401 16.28241327 36.20362751 16.8125 29.3125 C16.41025742 23.27886125 15.16933012 17.70295966 10.5625 13.5625 C10.09199219 13.05074219 9.62148437 12.53898437 9.13671875 12.01171875 C7.33692181 10.35483373 5.58025276 9.42339885 3.375 8.375 C2.65957031 8.03082031 1.94414063 7.68664063 1.20703125 7.33203125 C0.66433594 7.07808594 0.12164062 6.82414062 -0.4375 6.5625 C-0.4375 5.9025 -0.4375 5.2425 -0.4375 4.5625 C1.8725 6.2125 4.1825 7.8625 6.5625 9.5625 C7.2225 9.2325 7.8825 8.9025 8.5625 8.5625 C7.48380607 7.59894756 6.39931257 6.64188583 5.3125 5.6875 C4.70921875 5.15382813 4.1059375 4.62015625 3.484375 4.0703125 C0.84415518 1.99892053 -1.14946556 0.54839743 -4.578125 0.5859375 C-5.62226562 0.75996094 -5.62226562 0.75996094 -6.6875 0.9375 C-8.54375 1.246875 -8.54375 1.246875 -10.4375 1.5625 C-10.4375 0.5725 -10.4375 -0.4175 -10.4375 -1.4375 C-12.7475 -1.4375 -15.0575 -1.4375 -17.4375 -1.4375 Z " fill="#3F708D" transform="translate(57.4375,11.4375)"/>
<path d="M0 0 C1 2 1 2 0.22265625 4.3828125 C-0.16019531 5.28773437 -0.54304688 6.19265625 -0.9375 7.125 C-1.31777344 8.03507812 -1.69804688 8.94515625 -2.08984375 9.8828125 C-2.39019531 10.58148438 -2.69054688 11.28015625 -3 12 C-0.13275314 11.42655063 0.8614515 11.1385485 3 9 C3.33 10.32 3.66 11.64 4 13 C4.66 13 5.32 13 6 13 C6 16.3 6 19.6 6 23 C1.98113663 25.00943169 0.34323398 25.36963693 -4 25 C-4.99 24.34 -5.98 23.68 -7 23 C-6.01 24.98 -5.02 26.96 -4 29 C-3.34 29 -2.68 29 -2 29 C-2.33 31.31 -2.66 33.62 -3 36 C-6.27046435 36 -8.8473836 35.91951312 -12 35 C-15.0087215 30.98837134 -15.57844613 27.01750602 -15.4296875 22.125 C-14.72591246 18.64451254 -12.77047407 17.04487372 -10 15 C-9.34 15 -8.68 15 -8 15 C-6.11130589 11.44957932 -4.99778148 7.87236829 -3.87890625 4.0234375 C-3 2 -3 2 0 0 Z " fill="#EFF4F7" transform="translate(63,25)"/>
<path d="M0 0 C2.4499368 2.4499368 2.29666876 3.1904467 2.3125 6.5625 C2.22874886 11.7931396 0.95531128 16.18155434 -1 21 C-1.66 21 -2.32 21 -3 21 C-3.61875 22.0828125 -3.61875 22.0828125 -4.25 23.1875 C-6.41209199 26.66229071 -8.78128078 28.49655171 -12 31 C-12.66 30.67 -13.32 30.34 -14 30 C-13.34 30.99 -12.68 31.98 -12 33 C-9.18060883 30.79020692 -6.46941056 28.59937954 -4 26 C-3.505 27.485 -3.505 27.485 -3 29 C-10.15460563 35.90154884 -16.36344425 39.18713236 -26.4375 39.5625 C-35.63967846 39.31329356 -42.19619552 36.12342403 -49 30 C-48.34 28.68 -47.68 27.36 -47 26 C-44 29.75 -44 29.75 -44 32 C-42.35 32 -40.7 32 -39 32 C-39 31.01 -39 30.02 -39 29 C-36 30 -36 30 -35 32 C-35.33 32.66 -35.66 33.32 -36 34 C-35.34 34 -34.68 34 -34 34 C-34 34.66 -34 35.32 -34 36 C-32.68 36 -31.36 36 -30 36 C-29.67 34.68 -29.34 33.36 -29 32 C-28.67 32.66 -28.34 33.32 -28 34 C-27.67 32.02 -27.34 30.04 -27 28 C-26.34 28 -25.68 28 -25 28 C-24.67 30.97 -24.34 33.94 -24 37 C-19.82200357 34.91100178 -19.07608099 33.94455388 -17 30 C-17.66 29.01 -18.32 28.02 -19 27 C-18.071875 27.04125 -17.14375 27.0825 -16.1875 27.125 C-12.84190281 27.27136339 -12.84190281 27.27136339 -10 25 C-10.268125 24.46375 -10.53625 23.9275 -10.8125 23.375 C-11.204375 22.59125 -11.59625 21.8075 -12 21 C-12.556875 19.96875 -13.11375 18.9375 -13.6875 17.875 C-14.120625 16.92625 -14.55375 15.9775 -15 15 C-14.67 14.34 -14.34 13.68 -14 13 C-13.278125 13.639375 -12.55625 14.27875 -11.8125 14.9375 C-8.96763636 17.02373333 -7.48380442 17.82134336 -4 18 C-2.68 17.34 -1.36 16.68 0 16 C0 10.72 0 5.44 0 0 Z " fill="#174A68" transform="translate(70,33)"/>
<path d="M0 0 C0.33 0 0.66 0 1 0 C1.08636719 0.65226562 1.17273438 1.30453125 1.26171875 1.9765625 C2.25061551 8.1276818 3.4547284 11.67644896 8 16 C12.86264191 17.62088064 17.12050077 17.73263309 21.75 15.4375 C26.36336462 12.52052954 27.48752767 8.18965449 28.6875 3.0625 C28.790625 2.381875 28.89375 1.70125 29 1 C29.495 1.99 29.495 1.99 30 3 C31.65 2.67 33.3 2.34 35 2 C34.34 2.99 33.68 3.98 33 5 C32.34 5 31.68 5 31 5 C30.91363281 5.59167969 30.82726563 6.18335938 30.73828125 6.79296875 C29.73795564 12.41865314 28.50939477 15.22469275 24 19 C19.41407387 23.03998254 17.83749799 26.29408519 16 32 C15.34 31.67 14.68 31.34 14 31 C13.34 31.66 12.68 32.32 12 33 C11.91363281 32.40832031 11.82726562 31.81664063 11.73828125 31.20703125 C10.73240519 25.55013197 9.4683721 22.84487832 5 19 C0.36483208 14.25948735 -0.66798864 11.41888632 -1 5 C-2.32 4.67 -3.64 4.34 -5 4 C-5 3.34 -5 2.68 -5 2 C-3.68 2 -2.36 2 -1 2 C-0.67 1.34 -0.34 0.68 0 0 Z " fill="#2A81B3" transform="translate(29,22)"/>
<path d="M0 0 C2.31 0 4.62 0 7 0 C7 0.99 7 1.98 7 3 C8.7325 2.5978125 8.7325 2.5978125 10.5 2.1875 C15.08798767 1.60075913 17.59862397 2.98206263 21.30078125 5.5859375 C23.23502915 7.19558747 24.71486032 8.8313268 26 11 C22.9168649 9.80100302 19.93720508 8.52299523 17 7 C17.495 8.485 17.495 8.485 18 10 C17.01 10 16.02 10 15 10 C14.67 11.32 14.34 12.64 14 14 C12.68 14.33 11.36 14.66 10 15 C10.66 13.68 11.32 12.36 12 11 C11.01 10.67 10.02 10.34 9 10 C9 9.34 9 8.68 9 8 C4.26459767 7.4890367 4.26459767 7.4890367 0.25 9.5 C-0.1625 9.995 -0.575 10.49 -1 11 C-1.99 11 -2.98 11 -4 11 C-3.34 12.32 -2.68 13.64 -2 15 C-3.32 14.67 -4.64 14.34 -6 14 C-6.33 12.68 -6.66 11.36 -7 10 C-8.32 9.67 -9.64 9.34 -11 9 C-11 8.34 -11 7.68 -11 7 C-12.98 8.32 -14.96 9.64 -17 11 C-17.66 10.67 -18.32 10.34 -19 10 C-12.52922609 4.49265243 -8.6324291 2 0 2 C0 1.34 0 0.68 0 0 Z " fill="#F3F8FC" transform="translate(40,10)"/>
<path d="M0 0 C0.33 0 0.66 0 1 0 C1.14695312 1.06927734 1.14695312 1.06927734 1.296875 2.16015625 C2.26775214 8.3787917 3.71267948 12.67227364 7 18 C6.67 18.66 6.34 19.32 6 20 C5.34 20 4.68 20 4 20 C3.67 20.99 3.34 21.98 3 23 C0.9375 23.6875 0.9375 23.6875 -1 24 C-2.4783226 21.04335481 -2.06032783 18.25770263 -2 15 C-2.66 15 -3.32 15 -4 15 C-3.938125 16.423125 -3.938125 16.423125 -3.875 17.875 C-4 21 -4 21 -6 23 C-8.625 23.125 -8.625 23.125 -11 23 C-11 22.34 -11 21.68 -11 21 C-11.66 21 -12.32 21 -13 21 C-13.12375 20.38125 -13.2475 19.7625 -13.375 19.125 C-13.87197356 16.80879168 -13.87197356 16.80879168 -16 15 C-15.236875 14.79375 -14.47375 14.5875 -13.6875 14.375 C-10.10359698 12.5413752 -9.44959833 10.69647573 -8 7 C-7.30092586 4.26427415 -7.30092586 4.26427415 -7 2 C-6.54625 2.639375 -6.0925 3.27875 -5.625 3.9375 C-4.16078274 6.09702406 -4.16078274 6.09702406 -2 7 C-1.34 4.69 -0.68 2.38 0 0 Z " fill="#27658A" transform="translate(47,46)"/>
<path d="M0 0 C9.05385473 4.18581789 16.33127015 10.98308157 19.9921875 20.40625 C22.2733546 29.72928076 20.86410378 37.97109491 17.10546875 46.6484375 C15.49438233 49.17529936 14.39610476 49.95668666 11.62109375 50.9765625 C11.12609375 50.4815625 11.12609375 50.4815625 10.62109375 49.9765625 C10.04359375 50.7603125 9.46609375 51.5440625 8.87109375 52.3515625 C6.79211738 54.77703494 5.53069042 55.83350667 2.62109375 56.9765625 C2.29109375 55.6565625 1.96109375 54.3365625 1.62109375 52.9765625 C2.17796875 52.9353125 2.73484375 52.8940625 3.30859375 52.8515625 C6.81437743 51.52504976 8.35228391 48.88529306 10.62109375 45.9765625 C11.60400343 44.95975939 12.59444162 43.94918031 13.62109375 42.9765625 C13.95109375 43.6365625 14.28109375 44.2965625 14.62109375 44.9765625 C18.69292181 37.36401439 19.82903474 30.59547343 17.43359375 22.1640625 C16.28245597 18.90988455 16.02002395 18.20849866 12.93359375 16.4140625 C12.17046875 16.2696875 11.40734375 16.1253125 10.62109375 15.9765625 C11.28109375 15.3165625 11.94109375 14.6565625 12.62109375 13.9765625 C6.88879204 11.12368086 2.0225031 9.44211954 -4.37890625 8.9765625 C-4.37890625 8.6465625 -4.37890625 8.3165625 -4.37890625 7.9765625 C-2.39890625 7.6465625 -0.41890625 7.3165625 1.62109375 6.9765625 C1.29109375 6.3165625 0.96109375 5.6565625 0.62109375 4.9765625 C3.95442708 6.64322917 7.28776042 8.30989583 10.62109375 9.9765625 C5.33546565 4.84907396 5.33546565 4.84907396 -1.40234375 3.0859375 C-3.40234807 3.32453451 -5.39212528 3.64543234 -7.37890625 3.9765625 C-7.70890625 3.3165625 -8.03890625 2.6565625 -8.37890625 1.9765625 C-8.04890625 1.3165625 -7.71890625 0.6565625 -7.37890625 -0.0234375 C-9.68890625 -0.0234375 -11.99890625 -0.0234375 -14.37890625 -0.0234375 C-14.37890625 0.6365625 -14.37890625 1.2965625 -14.37890625 1.9765625 C-13.71890625 2.3065625 -13.05890625 2.6365625 -12.37890625 2.9765625 C-14.69140625 3.6015625 -14.69140625 3.6015625 -17.37890625 3.9765625 C-18.36890625 3.3165625 -19.35890625 2.6565625 -20.37890625 1.9765625 C-20.37890625 1.3165625 -20.37890625 0.6565625 -20.37890625 -0.0234375 C-14.68750572 -2.86913777 -5.96384489 -1.80639001 0 0 Z " fill="#587F96" transform="translate(54.37890625,10.0234375)"/>
<path d="M0 0 C6.29468991 1.78151601 6.29468991 1.78151601 8.1328125 4.95703125 C11.13029532 13.49840221 10.12514396 20.66628279 7 29 C5.3125 32.125 5.3125 32.125 4 34 C3.67 33.34 3.34 32.68 3 32 C3.7216054 30.261587 4.44917765 28.52491885 5.23046875 26.8125 C6.45516608 23.92793371 7 21.12267174 7 18 C6.9175 18.928125 6.835 19.85625 6.75 20.8125 C6 24 6 24 4.25 25.9375 C1.41184751 27.27773867 -0.05094291 26.90110078 -3 26 C-2.401875 25.731875 -1.80375 25.46375 -1.1875 25.1875 C1.17485053 23.90508114 2.45507928 23.2070296 4 21 C4.55177892 18.32068888 4.77564586 15.73712045 5 13 C4.34 13 3.68 13 3 13 C2.34 12.34 1.68 11.68 1 11 C0.01 11.66 -0.98 12.32 -2 13 C-2.66 12.67 -3.32 12.34 -4 12 C-3.33501617 7.61110675 -1.81242323 4.0188515 0 0 Z " fill="#A0C6DB" transform="translate(64,25)"/>
<path d="M0 0 C0.66 1.32 1.32 2.64 2 4 C2.66 4 3.32 4 4 4 C4 7.3 4 10.6 4 14 C-0.02686743 16.01343372 -1.64152179 16.54480978 -6 16 C-8.375 14.1875 -8.375 14.1875 -10 12 C-10 11.01 -10 10.02 -10 9 C-10.66 8.67 -11.32 8.34 -12 8 C-9.56780768 5.95695845 -7.23581365 4.61644954 -4.3125 3.4375 C-0.92727108 2.38993022 -0.92727108 2.38993022 0 0 Z " fill="#E5F1F8" transform="translate(65,34)"/>
<path d="M0 0 C2.4499368 2.4499368 2.29666876 3.1904467 2.3125 6.5625 C2.22874886 11.7931396 0.95531128 16.18155434 -1 21 C-1.66 21 -2.32 21 -3 21 C-3.4125 21.721875 -3.825 22.44375 -4.25 23.1875 C-6.41209199 26.66229071 -8.78128078 28.49655171 -12 31 C-12.66 30.67 -13.32 30.34 -14 30 C-14 30.66 -14 31.32 -14 32 C-15.32 31.67 -16.64 31.34 -18 31 C-18 30.34 -18 29.68 -18 29 C-18.33 28.34 -18.66 27.68 -19 27 C-18.071875 27.04125 -17.14375 27.0825 -16.1875 27.125 C-12.84190281 27.27136339 -12.84190281 27.27136339 -10 25 C-10.268125 24.46375 -10.53625 23.9275 -10.8125 23.375 C-11.204375 22.59125 -11.59625 21.8075 -12 21 C-12.8353125 19.453125 -12.8353125 19.453125 -13.6875 17.875 C-14.120625 16.92625 -14.55375 15.9775 -15 15 C-14.67 14.34 -14.34 13.68 -14 13 C-13.278125 13.639375 -12.55625 14.27875 -11.8125 14.9375 C-8.96763636 17.02373333 -7.48380442 17.82134336 -4 18 C-2.68 17.34 -1.36 16.68 0 16 C0 10.72 0 5.44 0 0 Z " fill="#376F8F" transform="translate(70,33)"/>
<path d="M0 0 C0.66523639 3.74195471 1 7.20436828 1 11 C-0.98 11.33 -2.96 11.66 -5 12 C-5.66 10.68 -6.32 9.36 -7 8 C-7.36741339 16.55937129 -6.73977333 23.86222087 -4 32 C-8.30171322 28.02362644 -9.76406642 23.55122844 -10.29296875 17.83203125 C-10.44601764 11.4987224 -10.25397191 6.5067217 -7 1 C-4.53721199 -0.231394 -2.7204945 -0.07159196 0 0 Z " fill="#DDE6EC" transform="translate(24,26)"/>
<path d="M0 0 C2.62386487 3.06117568 3 3.73173127 3 8 C2.34 8.66 1.68 9.32 1 10 C1.66 10 2.32 10 3 10 C3.05399736 11.45792884 3.09279177 12.91642712 3.125 14.375 C3.14820313 15.18710937 3.17140625 15.99921875 3.1953125 16.8359375 C3 19 3 19 1 21 C-1.625 21.125 -1.625 21.125 -4 21 C-4 20.34 -4 19.68 -4 19 C-4.66 19 -5.32 19 -6 19 C-6.12375 18.38125 -6.2475 17.7625 -6.375 17.125 C-6.87197356 14.80879168 -6.87197356 14.80879168 -9 13 C-8.236875 12.79375 -7.47375 12.5875 -6.6875 12.375 C-3.10359698 10.5413752 -2.44959833 8.69647573 -1 5 C-0.30092586 2.26427415 -0.30092586 2.26427415 0 0 Z " fill="#658AA0" transform="translate(40,48)"/>
<path d="M0 0 C0.33 0 0.66 0 1 0 C1.08636719 0.65226562 1.17273438 1.30453125 1.26171875 1.9765625 C2.25367408 8.14670666 3.4466558 11.66348171 8 16 C9.11375 16.5259375 9.11375 16.5259375 10.25 17.0625 C10.8275 17.371875 11.405 17.68125 12 18 C12.75 20.625 12.75 20.625 13 23 C12.01 23.33 11.02 23.66 10 24 C8.30630547 22.35469674 6.64674986 20.69137722 5 19 C4.0925 18.071875 3.185 17.14375 2.25 16.1875 C-0.5685445 12.19456196 -0.75106085 9.81282348 -1 5 C-2.32 4.67 -3.64 4.34 -5 4 C-5 3.34 -5 2.68 -5 2 C-3.68 2 -2.36 2 -1 2 C-0.67 1.34 -0.34 0.68 0 0 Z " fill="#388DBF" transform="translate(29,22)"/>
<path d="M0 0 C0.33 0.66 0.66 1.32 1 2 C0.46375 2.495 -0.0725 2.99 -0.625 3.5 C-2.2191667 6.39848491 -2.0416255 6.92528067 -1.25 10 C-0.84285476 11.33627155 -0.42612478 12.66965923 0 14 C0.34202643 15.3311299 0.67790616 16.66390702 1 18 C0.01 18.33 -0.98 18.66 -2 19 C-2.5775 18.113125 -3.155 17.22625 -3.75 16.3125 C-5.16211132 14.17416 -6.59424505 12.29020731 -8.25 10.3125 C-10 8 -10 8 -10 5 C-9.36191406 4.72285156 -8.72382813 4.44570313 -8.06640625 4.16015625 C-7.24011719 3.79792969 -6.41382813 3.43570313 -5.5625 3.0625 C-4.73878906 2.70285156 -3.91507813 2.34320313 -3.06640625 1.97265625 C-1.05589883 1.16877677 -1.05589883 1.16877677 0 0 Z " fill="#5889A5" transform="translate(31,47)"/>
<path d="M0 0 C0.33 0 0.66 0 1 0 C0.94199219 0.79921875 0.88398438 1.5984375 0.82421875 2.421875 C0.45721671 11.35575327 1.63480526 19.57071346 7.41015625 26.75390625 C8.56429872 27.88112994 9.7775054 28.94729632 11 30 C11.33 30.99 11.66 31.98 12 33 C9 33 9 33 6.9375 31.0625 C6.298125 30.381875 5.65875 29.70125 5 29 C4.34 28.67 3.68 28.34 3 28 C-0.64764483 19.53320397 -1.84488129 11.1551891 -1 2 C-0.67 1.34 -0.34 0.68 0 0 Z " fill="#AEC0CB" transform="translate(17,32)"/>
<path d="M0 0 C0.33 0.66 0.66 1.32 1 2 C2.65 1.67 4.3 1.34 6 1 C5.01 2.485 5.01 2.485 4 4 C3.34 4 2.68 4 2 4 C1.91363281 4.59167969 1.82726563 5.18335938 1.73828125 5.79296875 C0.7405364 11.40413933 -0.4878383 14.23986525 -5 18 C-5.70125 18.763125 -6.4025 19.52625 -7.125 20.3125 C-9 22 -9 22 -12 22 C-11.505 20.515 -11.505 20.515 -11 19 C-8.4375 17.8125 -8.4375 17.8125 -6 17 C-6.33 16.01 -6.66 15.02 -7 14 C-6.1028125 13.319375 -6.1028125 13.319375 -5.1875 12.625 C-2.04775671 8.85730806 -1.18302413 4.69624732 0 0 Z " fill="#6DABCF" transform="translate(58,23)"/>
<path d="M0 0 C1.890625 0.2421875 1.890625 0.2421875 4 1 C7.23268746 6.62101626 7.86982293 13.24260162 6.42578125 19.48046875 C5.15084108 24.04731795 3.74543131 28.07795527 1 32 C0.67 31.34 0.34 30.68 0 30 C0.72527587 28.25274448 1.45590386 26.50722108 2.23046875 24.78125 C4.78360528 18.87145173 5.02513961 11.07541883 3 5 C2.67 5.66 2.34 6.32 2 7 C1.01 6.67 0.02 6.34 -1 6 C-1 5.34 -1 4.68 -1 4 C-0.34 4 0.32 4 1 4 C0.67 2.68 0.34 1.36 0 0 Z " fill="#E3EAEF" transform="translate(67,27)"/>
<path d="M0 0 C0.66 0.99 1.32 1.98 2 3 C-3.28946661 7.96791849 -7.91265639 11.77705398 -15.4375 12.1875 C-16.283125 12.125625 -17.12875 12.06375 -18 12 C-15.81786414 8.7267962 -14.75734656 7.1969101 -10.875 6.1875 C-9.2522459 6.08166821 -7.62620148 6 -6 6 C-4.29220027 4.37550757 -2.62449243 2.70779973 -1 1 C-0.67 0.67 -0.34 0.34 0 0 Z " fill="#154765" transform="translate(65,59)"/>
<path d="M0 0 C1.890625 0.828125 1.890625 0.828125 4.453125 2.328125 C4.123125 2.988125 3.793125 3.648125 3.453125 4.328125 C2.545625 4.1425 1.638125 3.956875 0.703125 3.765625 C-2.23001824 3.37077879 -3.8113407 3.38120928 -6.546875 4.328125 C-6.876875 3.668125 -7.206875 3.008125 -7.546875 2.328125 C-7.216875 1.668125 -6.886875 1.008125 -6.546875 0.328125 C-8.856875 0.328125 -11.166875 0.328125 -13.546875 0.328125 C-13.546875 0.988125 -13.546875 1.648125 -13.546875 2.328125 C-12.886875 2.658125 -12.226875 2.988125 -11.546875 3.328125 C-13.859375 3.953125 -13.859375 3.953125 -16.546875 4.328125 C-17.536875 3.668125 -18.526875 3.008125 -19.546875 2.328125 C-19.546875 1.668125 -19.546875 1.008125 -19.546875 0.328125 C-14.51318059 -2.1887222 -5.40010506 -1.42456759 0 0 Z " fill="#4D85A7" transform="translate(53.546875,9.671875)"/>
<path d="M0 0 C1.65 0.33 3.3 0.66 5 1 C4.67 1.66 4.34 2.32 4 3 C4.66 3.33 5.32 3.66 6 4 C6 3.34 6 2.68 6 2 C7.65 2 9.3 2 11 2 C9.1875 4.5 9.1875 4.5 7 7 C6.01 7 5.02 7 4 7 C4.66 8.32 5.32 9.64 6 11 C4.68 10.67 3.36 10.34 2 10 C1.67 8.68 1.34 7.36 1 6 C-0.32 5.67 -1.64 5.34 -3 5 C-2.01 3.35 -1.02 1.7 0 0 Z " fill="#A9D1E8" transform="translate(32,14)"/>
<path d="M0 0 C0.33 0 0.66 0 1 0 C1.09796875 0.71285156 1.1959375 1.42570312 1.296875 2.16015625 C2.26775214 8.3787917 3.71267948 12.67227364 7 18 C6.67 18.66 6.34 19.32 6 20 C2.83884224 18.63016497 2.0072908 18.0109362 0 15 C-0.37309899 13.34178227 -0.70700977 11.67422986 -1 10 C-1.33 9.01 -1.66 8.02 -2 7 C-1.40206327 4.64811553 -0.74118205 2.31074405 0 0 Z " fill="#93B3C6" transform="translate(47,46)"/>
<path d="M0 0 C2.4499368 2.4499368 2.29666876 3.1904467 2.3125 6.5625 C2.22874886 11.7931396 0.95531128 16.18155434 -1 21 C-1.66 21 -2.32 21 -3 21 C-4.6446674 23.46326712 -4.6446674 23.46326712 -6 26 C-6.8125 24.375 -6.8125 24.375 -7 22 C-4.6875 18.75 -4.6875 18.75 -2 16 C-1.34 16 -0.68 16 0 16 C0 10.72 0 5.44 0 0 Z " fill="#2D6686" transform="translate(70,33)"/>
<path d="M0 0 C0.66 0 1.32 0 2 0 C2.14695312 0.93972656 2.14695312 0.93972656 2.296875 1.8984375 C2.44640625 2.71570312 2.5959375 3.53296875 2.75 4.375 C2.88921875 5.18710938 3.0284375 5.99921875 3.171875 6.8359375 C3.92097496 9.52342062 3.92097496 9.52342062 8 11 C3.05 11 -1.9 11 -7 11 C-5.68 10.34 -4.36 9.68 -3 9 C-3 7.35 -3 5.7 -3 4 C-2.34 4.66 -1.68 5.32 -1 6 C-0.67 4.02 -0.34 2.04 0 0 Z " fill="#235572" transform="translate(43,61)"/>
<path d="M0 0 C1.32 0.66 2.64 1.32 4 2 C4.125 4.875 4.125 4.875 4 8 C3.34 8.66 2.68 9.32 2 10 C-0.125 9.625 -0.125 9.625 -2 9 C-2.125 5.625 -2.125 5.625 -2 2 C-1.34 1.34 -0.68 0.68 0 0 Z " fill="#399ED8" transform="translate(43,28)"/>
<path d="M0 0 C5.29158974 1.40071493 7.77478044 4.85487245 11 9 C7.22197162 10.23196578 5.52245881 9.46701405 1.94921875 7.76953125 C-1.30142458 6.48621114 -4.53292436 6.30412944 -8 6 C-8 5.67 -8 5.34 -8 5 C-6.02 4.67 -4.04 4.34 -2 4 C-2.33 3.34 -2.66 2.68 -3 2 C0.33333333 3.66666667 3.66666667 5.33333333 7 7 C6.24203125 6.36771484 6.24203125 6.36771484 5.46875 5.72265625 C4.8190625 5.17480469 4.169375 4.62695312 3.5 4.0625 C2.8503125 3.51722656 2.200625 2.97195312 1.53125 2.41015625 C1.0259375 1.94480469 0.520625 1.47945312 0 1 C0 0.67 0 0.34 0 0 Z " fill="#538BAC" transform="translate(58,13)"/>
<path d="M0 0 C0.99 0.33 1.98 0.66 3 1 C2.28972656 1.40992188 1.57945313 1.81984375 0.84765625 2.2421875 C-0.07144531 2.78101563 -0.99054687 3.31984375 -1.9375 3.875 C-2.85402344 4.40867187 -3.77054688 4.94234375 -4.71484375 5.4921875 C-7.10700296 6.79712563 -7.10700296 6.79712563 -8 9 C-7.113125 8.29875 -6.22625 7.5975 -5.3125 6.875 C-2 5 -2 5 0.875 5.75 C1.57625 6.1625 2.2775 6.575 3 7 C3 7.33 3 7.66 3 8 C2.30132812 8.20496094 1.60265625 8.40992188 0.8828125 8.62109375 C-0.02726562 8.89050781 -0.93734375 9.15992188 -1.875 9.4375 C-2.77992187 9.70433594 -3.68484375 9.97117187 -4.6171875 10.24609375 C-6.98275381 10.92613826 -6.98275381 10.92613826 -9 12 C-9.66 11.67 -10.32 11.34 -11 11 C-10.62342801 8.3292356 -10.21955159 7.20604073 -8.22265625 5.33203125 C-7.50980469 4.83058594 -6.79695313 4.32914063 -6.0625 3.8125 C-5.35222656 3.30332031 -4.64195313 2.79414063 -3.91015625 2.26953125 C-2 1 -2 1 0 0 Z " fill="#4E86A7" transform="translate(31,11)"/>
<path d="M0 0 C0 0.66 0 1.32 0 2 C1.32 2.66 2.64 3.32 4 4 C3.01 4 2.02 4 1 4 C0.67 5.32 0.34 6.64 0 8 C-1.32 8.33 -2.64 8.66 -4 9 C-3.34 7.68 -2.68 6.36 -2 5 C-2.99 4.67 -3.98 4.34 -5 4 C-5 3.34 -5 2.68 -5 2 C-6.32 1.67 -7.64 1.34 -9 1 C-9 0.67 -9 0.34 -9 0 C-5.62182575 -0.84454356 -3.32534757 -1.10844919 0 0 Z " fill="#91C8E7" transform="translate(54,16)"/>
<path d="M0 0 C1.65 0 3.3 0 5 0 C5.66523639 3.74195471 6 7.20436828 6 11 C4.02 11.33 2.04 11.66 0 12 C0 10.68 0 9.36 0 8 C0.66 7.67 1.32 7.34 2 7 C2 6.34 2 5.68 2 5 C1.34 4.67 0.68 4.34 0 4 C0 2.68 0 1.36 0 0 Z " fill="#8CBFDC" transform="translate(19,26)"/>
<path d="M0 0 C0.66 0.66 1.32 1.32 2 2 C1.34 3.98 0.68 5.96 0 8 C-0.66 7.67 -1.32 7.34 -2 7 C-2.86625 8.175625 -2.86625 8.175625 -3.75 9.375 C-5.82897637 11.80047244 -7.09040333 12.85694417 -10 14 C-10.33 12.68 -10.66 11.36 -11 10 C-10.1646875 9.938125 -10.1646875 9.938125 -9.3125 9.875 C-4.89027351 8.20172511 -2.54165518 3.81248277 0 0 Z " fill="#90AAB8" transform="translate(67,53)"/>
<path d="M0 0 C0.33 0 0.66 0 1 0 C1.33611568 2.10372401 1.66879946 4.20799657 2 6.3125 C2.185625 7.48425781 2.37125 8.65601563 2.5625 9.86328125 C3 13 3 13 3 16 C0.9656541 14.58480285 0.09589607 13.45017877 -0.421875 11.01953125 C-0.66273952 9.01823046 -0.83532741 7.0090056 -1 5 C-2.32 4.67 -3.64 4.34 -5 4 C-5 3.34 -5 2.68 -5 2 C-3.68 2 -2.36 2 -1 2 C-0.67 1.34 -0.34 0.68 0 0 Z " fill="#7EB4D3" transform="translate(29,22)"/>
<path d="M0 0 C5.17379682 2.24783891 8.77697025 4.16545537 12 9 C9.53917533 8.04301263 7.18244362 7.10195379 4.875 5.8125 C2.83950715 4.68274201 2.83950715 4.68274201 0 6 C-1.125 2.25 -1.125 2.25 0 0 Z " fill="#E9F0F4" transform="translate(54,12)"/>
<path d="M0 0 C3.96670899 0.44074544 6.68811135 1.82361603 10 4 C7.63488065 4.7007761 5.86250564 4.99345265 3.375 4.875 C2.59125 4.91625 1.8075 4.9575 1 5 C0.34 5.99 -0.32 6.98 -1 8 C-1.04241723 5.66705225 -1.04092937 3.33297433 -1 1 C-0.67 0.67 -0.34 0.34 0 0 Z " fill="#DCE9F1" transform="translate(58,20)"/>
<path d="M0 0 C0.33 0 0.66 0 1 0 C0.96519531 0.85722656 0.93039063 1.71445312 0.89453125 2.59765625 C0.73781639 9.21699334 0.746111 14.17011554 4 20 C3.01 20.33 2.02 20.66 1 21 C-0.68961017 16.5923213 -1.24721636 12.9621638 -1.1875 8.25 C-1.17783203 6.55617188 -1.17783203 6.55617188 -1.16796875 4.828125 C-1 2 -1 2 0 0 Z " fill="#3A6E8D" transform="translate(17,32)"/>
<path d="M0 0 C1.32 0.33 2.64 0.66 4 1 C4 2.32 4 3.64 4 5 C3.34 5 2.68 5 2 5 C2.30035156 5.54269531 2.60070312 6.08539063 2.91015625 6.64453125 C3.29042969 7.35996094 3.67070312 8.07539062 4.0625 8.8125 C4.63677734 9.87404297 4.63677734 9.87404297 5.22265625 10.95703125 C6 13 6 13 5 16 C2.70311431 13.70311431 2.28148697 12.21071829 1.375 9.125 C1.11460938 8.26132812 0.85421875 7.39765625 0.5859375 6.5078125 C0 4 0 4 0 0 Z " fill="#BFDCED" transform="translate(24,26)"/>
<path d="M0 0 C2.15045866 2.15045866 2.47263408 3.22344402 3.3125 6.0625 C4.00413605 8.20002957 4.00413605 8.20002957 5 10 C7.57080135 11.13440778 7.57080135 11.13440778 10 11 C7 13 7 13 5 13 C1.83814632 11.41907316 1.22009526 9.23325243 0 6 C-0.1875 2.625 -0.1875 2.625 0 0 Z " fill="#9CB7C6" transform="translate(17,39)"/>
<path d="M0 0 C0.515625 0.2475 1.03125 0.495 1.5625 0.75 C0.29543765 3.28412471 -0.84415712 3.72838008 -3.4375 4.75 C-4.0975 4.42 -4.7575 4.09 -5.4375 3.75 C-5.7675 4.41 -6.0975 5.07 -6.4375 5.75 C-7.4275 5.09 -8.4175 4.43 -9.4375 3.75 C-3.0375 -0.31153846 -3.0375 -0.31153846 0 0 Z " fill="#E0ECF4" transform="translate(29.4375,20.25)"/>
<path d="M0 0 C0.99 0 1.98 0 3 0 C2.625 1.9375 2.625 1.9375 2 4 C1.01 4.495 1.01 4.495 0 5 C-0.66 4.67 -1.32 4.34 -2 4 C-2 4.66 -2 5.32 -2 6 C-3.32 5.67 -4.64 5.34 -6 5 C-6 4.34 -6 3.68 -6 3 C-6.33 2.34 -6.66 1.68 -7 1 C-5.5459375 1.0309375 -5.5459375 1.0309375 -4.0625 1.0625 C-1.12534105 1.35618499 -1.12534105 1.35618499 0 0 Z " fill="#326482" transform="translate(58,59)"/>
<path d="M0 0 C2.62386487 3.06117568 3 3.73173127 3 8 C1.0625 10.125 1.0625 10.125 -1 12 C-1.33 12.66 -1.66 13.32 -2 14 C-2.66 13.67 -3.32 13.34 -4 13 C-3.71125 12.34 -3.4225 11.68 -3.125 11 C-1.76562701 7.37500535 -0.89375361 3.76653307 0 0 Z " fill="#8EB1C6" transform="translate(40,48)"/>
<path d="M0 0 C0.66 0 1.32 0 2 0 C2 1.32 2 2.64 2 4 C3.32 4.33 4.64 4.66 6 5 C5.67 6.65 5.34 8.3 5 10 C4.01 10 3.02 10 2 10 C0.68373308 6.38026598 0 3.90432869 0 0 Z " fill="#75A8C5" transform="translate(21,38)"/>
<path d="M0 0 C2.57798841 0.36363205 3.69164073 0.59533633 5.30078125 2.70703125 C5.63464844 3.40183594 5.96851562 4.09664062 6.3125 4.8125 C6.65925781 5.49957031 7.00601563 6.18664062 7.36328125 6.89453125 C8.10314333 9.34106905 7.82973374 10.61786119 7 13 C6.4121875 11.329375 6.4121875 11.329375 5.8125 9.625 C4.57517033 6.68039334 4.26393503 6.14117455 1.3125 4.5625 C0.1678125 4.2840625 0.1678125 4.2840625 -1 4 C-0.34 3.34 0.32 2.68 1 2 C0.67 1.34 0.34 0.68 0 0 Z " fill="#346F91" transform="translate(66,22)"/>
<path d="M0 0 C2.97 0.99 5.94 1.98 9 3 C8.67 3.66 8.34 4.32 8 5 C7.0925 4.814375 6.185 4.62875 5.25 4.4375 C2.31685676 4.04265379 0.7355343 4.05308428 -2 5 C-2.33 4.34 -2.66 3.68 -3 3 C-2.01 2.01 -1.02 1.02 0 0 Z " fill="#72AACB" transform="translate(49,9)"/>
<path d="M0 0 C2.09749995 2.35968744 2.96905704 3.54616994 3.1875 6.75 C3.125625 7.4925 3.06375 8.235 3 9 C3.66 9.33 4.32 9.66 5 10 C4.01 10.33 3.02 10.66 2 11 C-0.39014869 7.51436649 -1.47274656 5.25471906 -1 1 C-0.67 0.67 -0.34 0.34 0 0 Z " fill="#EAF0F3" transform="translate(20,39)"/>
<path d="M0 0 C0.66 0.33 1.32 0.66 2 1 C0.58994275 2.15395711 -0.82833458 3.29787466 -2.25 4.4375 C-3.43335938 5.39462891 -3.43335938 5.39462891 -4.640625 6.37109375 C-6.86247492 7.90505305 -8.36743482 8.57130246 -11 9 C-7.56638098 5.36440339 -4.2026393 2.63886654 0 0 Z " fill="#ECF2F5" transform="translate(32,12)"/>
<path d="M0 0 C0.33 0 0.66 0 1 0 C1 1.65 1 3.3 1 5 C1.66 5 2.32 5 3 5 C3.33 6.98 3.66 8.96 4 11 C3.01 11.33 2.02 11.66 1 12 C-0.26237731 9.47524538 -0.09856404 7.68799534 -0.0625 4.875 C-0.05347656 3.96492188 -0.04445312 3.05484375 -0.03515625 2.1171875 C-0.02355469 1.41851562 -0.01195312 0.71984375 0 0 Z " fill="#83A0B2" transform="translate(45,58)"/>
<path d="M0 0 C1.67542976 0.28604898 3.34385343 0.61781233 5 1 C4.649375 1.61875 4.29875 2.2375 3.9375 2.875 C3.4734375 3.926875 3.4734375 3.926875 3 5 C3.33 5.66 3.66 6.32 4 7 C3.01 7 2.02 7 1 7 C1 6.34 1 5.68 1 5 C0.01 5.33 -0.98 5.66 -2 6 C-1.125 1.125 -1.125 1.125 0 0 Z " fill="#D3EAF7" transform="translate(48,19)"/>
<path d="M0 0 C0.33 0.66 0.66 1.32 1 2 C-0.65 3.98 -2.3 5.96 -4 8 C-4.33 7.34 -4.66 6.68 -5 6 C-7.01669827 4.86649466 -7.01669827 4.86649466 -9 4 C-7.125 2.9375 -7.125 2.9375 -5 2 C-4.34 2.33 -3.68 2.66 -3 3 C-2.67 2.67 -2.34 2.34 -2 2 C-1.34 1.34 -0.68 0.68 0 0 Z " fill="#7B9DB1" transform="translate(40,58)"/>
<path d="M0 0 C1.37562854 1.28965176 2.70766393 2.62689293 4 4 C4 4.66 4 5.32 4 6 C5.65 6.33 7.3 6.66 9 7 C7.02 7.99 7.02 7.99 5 9 C3.02 7.35 1.04 5.7 -1 4 C-0.67 2.68 -0.34 1.36 0 0 Z " fill="#2A5772" transform="translate(22,59)"/>
<path d="M0 0 C2 3 2 3 1.875 6 C1 9 1 9 -0.75 10.9375 C-3.58815249 12.27773867 -5.05094291 11.90110078 -8 11 C-7.401875 10.731875 -6.80375 10.46375 -6.1875 10.1875 C-3.90204582 8.94682487 -2.55935721 8.07914294 -1 6 C-0.2730774 2.89160979 -0.2730774 2.89160979 0 0 Z " fill="#9CB7C7" transform="translate(69,40)"/>
<path d="M0 0 C0.66 0 1.32 0 2 0 C2 3.3 2 6.6 2 10 C0.68 9.67 -0.64 9.34 -2 9 C-1.41196203 5.97580475 -0.77321882 2.98241547 0 0 Z " fill="#F4F7F9" transform="translate(67,38)"/>
<path d="M0 0 C1.01176799 2.02353598 1.48320742 3.80363152 2 6 C2.185625 6.7425 2.37125 7.485 2.5625 8.25 C2.7790625 9.11625 2.7790625 9.11625 3 10 C0 9 0 9 -1.6875 6.625 C-3 4 -3 4 -3 1 C-2.01 0.67 -1.02 0.34 0 0 Z " fill="#205A7B" transform="translate(24,51)"/>
<path d="M0 0 C0.99 0 1.98 0 3 0 C3.33 0.99 3.66 1.98 4 3 C-1.625 8 -1.625 8 -5 8 C-4.67 7.01 -4.34 6.02 -4 5 C-1.4375 3.8125 -1.4375 3.8125 1 3 C0.67 2.01 0.34 1.02 0 0 Z " fill="#82B6D5" transform="translate(51,37)"/>
<path d="M0 0 C2.97 1.98 2.97 1.98 6 4 C5.67 6.64 5.34 9.28 5 12 C4 10 4 10 3 8 C2.195625 6.453125 2.195625 6.453125 1.375 4.875 C0 2 0 2 0 0 Z " fill="#5288A8" transform="translate(55,46)"/>
<path d="M0 0 C2.64 0 5.28 0 8 0 C8 0.99 8 1.98 8 3 C8.33 3.99 8.66 4.98 9 6 C7.68 5.67 6.36 5.34 5 5 C4.67 3.68 4.34 2.36 4 1 C2.68 0.67 1.36 0.34 0 0 Z " fill="#91C8E7" transform="translate(29,19)"/>
<path d="M0 0 C1.32 0.33 2.64 0.66 4 1 C4 2.65 4 4.3 4 6 C2.68 5.67 1.36 5.34 0 5 C0 3.35 0 1.7 0 0 Z " fill="#76A1BA" transform="translate(61,42)"/>
<path d="M0 0 C1.33855056 0.78281305 2.67073644 1.57651877 4 2.375 C5.11375 3.03628906 5.11375 3.03628906 6.25 3.7109375 C6.8275 4.13632812 7.405 4.56171875 8 5 C8 5.66 8 6.32 8 7 C7.01 7.33 6.02 7.66 5 8 C2.5 5.6875 2.5 5.6875 0 3 C0 2.01 0 1.02 0 0 Z " fill="#89B9D6" transform="translate(34,38)"/>
<path d="M0 0 C0.66 0.99 1.32 1.98 2 3 C0.35 4.65 -1.3 6.3 -3 8 C-3.99 7.67 -4.98 7.34 -6 7 C-4.02 4.69 -2.04 2.38 0 0 Z " fill="#24536F" transform="translate(65,59)"/>
<path d="M0 0 C0.1875 2.375 0.1875 2.375 0 5 C-0.99 5.66 -1.98 6.32 -3 7 C-3.66 6.67 -4.32 6.34 -5 6 C-5 5.01 -5 4.02 -5 3 C-1.55555556 0 -1.55555556 0 0 0 Z " fill="#BDDCEE" transform="translate(65,31)"/>
<path d="M0 0 C0 0.66 0 1.32 0 2 C-2.91482778 2.80967438 -4.46113217 3.21845993 -7.3125 2.0625 C-7.869375 1.711875 -8.42625 1.36125 -9 1 C-9 0.67 -9 0.34 -9 0 C-5.62182575 -0.84454356 -3.32534757 -1.10844919 0 0 Z " fill="#9ED1EF" transform="translate(54,16)"/>
<path d="M0 0 C2.97 0.495 2.97 0.495 6 1 C6.33 2.32 6.66 3.64 7 5 C4.625 4.75 4.625 4.75 2 4 C0.6875 1.9375 0.6875 1.9375 0 0 Z " fill="#CFE8F7" transform="translate(35,20)"/>
<path d="M0 0 C0.66 0 1.32 0 2 0 C2.33 2.97 2.66 5.94 3 9 C2.34 8.67 1.68 8.34 1 8 C0.40644386 5.35139573 0.25790731 2.70802678 0 0 Z " fill="#7F9DAE" transform="translate(19,52)"/>
<path d="M0 0 C1.32 0.66 2.64 1.32 4 2 C4 3.98 4 5.96 4 8 C3.34 8 2.68 8 2 8 C1.814375 6.824375 1.814375 6.824375 1.625 5.625 C1.20882007 2.85942178 1.20882007 2.85942178 -1 1 C-0.67 0.67 -0.34 0.34 0 0 Z " fill="#94C9E8" transform="translate(43,28)"/>
<path d="M0 0 C1.32 0.33 2.64 0.66 4 1 C4.33 2.32 4.66 3.64 5 5 C4.01 5.33 3.02 5.66 2 6 C1.34 4.02 0.68 2.04 0 0 Z " fill="#46738C" transform="translate(27,60)"/>
<path d="M0 0 C1.24546405 2.49092811 0.7767578 3.41080733 0 6 C-1.32 6 -2.64 6 -4 6 C-3.6875 4.125 -3.6875 4.125 -3 2 C-2.01 1.34 -1.02 0.68 0 0 Z " fill="#DDEDF7" transform="translate(63,25)"/>
<path d="M0 0 C0.33 0.66 0.66 1.32 1 2 C1.66 2.33 2.32 2.66 3 3 C0.6875 3.6875 0.6875 3.6875 -2 4 C-3.8125 2.5625 -3.8125 2.5625 -5 1 C-3.35 0.67 -1.7 0.34 0 0 Z " fill="#86C2E5" transform="translate(39,10)"/>
</svg>
